<svg xmlns="http://www.w3.org/2000/svg" xml:space="preserve" viewBox="287 227.02 29.59 39.64">
    <path style="stroke:none;stroke-width:1;stroke-dasharray:none;stroke-linecap:butt;stroke-dashoffset:0;stroke-linejoin:miter;stroke-miterlimit:4;fill:#ff5111;fill-rule:nonzero;opacity:1" transform="translate(287 227.02)" d="M12.096 38.388c0-.687.583-1.248 1.297-1.248.713 0 1.297.561 1.297 1.248 0 .687-.584 1.248-1.297 1.248-.714 0-1.297-.53-1.297-1.248Zm0-37.14c0-.686.583-1.248 1.297-1.248.713 0 1.297.562 1.297 1.248 0 .687-.584 1.249-1.297 1.249-.714 0-1.297-.53-1.297-1.249ZM5.61 7.49c0-.686.584-1.248 1.297-1.248.714 0 1.297.562 1.297 1.248 0 .687-.583 1.249-1.297 1.249-.713 0-1.297-.53-1.297-1.249Zm.551 6.242c0-.405.325-.718.746-.718.422 0 .746.313.746.718 0 .406-.324.718-.746.718-.421 0-.746-.312-.746-.718Zm-6.161 0c0-.218.195-.405.422-.405.227 0 .421.187.421.405a.421.421 0 0 1-.421.406c-.227 0-.422-.156-.422-.406Zm0 5.836c0-.218.195-.405.422-.405.227 0 .421.187.421.405a.421.421 0 0 1-.421.406.421.421 0 0 1-.422-.406Zm0 6.648c0-.218.195-.406.422-.406.227 0 .421.188.421.406a.421.421 0 0 1-.421.406c-.227 0-.422-.156-.422-.406Zm6.161-6.648c0-.405.325-.717.746-.717.422 0 .746.312.746.717 0 .406-.324.718-.746.718-.421 0-.746-.312-.746-.718Zm0 6.648c0-.406.325-.718.746-.718.422 0 .746.312.746.718 0 .406-.324.718-.746.718-.421 0-.746-.312-.746-.718Zm-.55 6.242c0-.687.583-1.248 1.296-1.248.714 0 1.297.561 1.297 1.248 0 .687-.583 1.248-1.297 1.248-.713 0-1.297-.53-1.297-1.248Zm5.61-25.28c0-1.248 1.004-2.09 2.172-2.09 1.297 0 2.173.967 2.173 2.09 0 1.124-1.006 2.091-2.173 2.091-1.297 0-2.173-.967-2.173-2.09Zm7.133.312c0-1.248 1.006-2.09 2.173-2.09 1.297 0 2.173.967 2.173 2.09 0 1.124-1.006 2.091-2.173 2.091-1.297 0-2.173-.967-2.173-2.09Zm0 24.968c0-1.248 1.006-2.09 2.173-2.09 1.297 0 2.173.967 2.173 2.09 0 1.124-1.006 2.091-2.173 2.091-1.297 0-2.173-.967-2.173-2.09Zm0-12.796c0-1.248 1.006-2.09 2.173-2.09 1.297 0 2.173.967 2.173 2.09 0 1.124-1.006 2.091-2.173 2.091-1.297 0-2.173-.967-2.173-2.09ZM11.22 32.146c0-1.248 1.005-2.091 2.173-2.091 1.297 0 2.173.967 2.173 2.091s-1.006 2.091-2.173 2.091c-1.297 0-2.173-.967-2.173-2.091Zm-.389-19.038c0-1.498 1.2-2.465 2.562-2.465 1.556 0 2.562 1.154 2.562 2.465 0 1.31-1.2 2.466-2.562 2.466-1.557.03-2.562-1.124-2.562-2.466Zm0 13.108c0-1.498 1.2-2.465 2.562-2.465 1.556 0 2.562 1.154 2.562 2.465s-1.2 2.466-2.562 2.466c-1.557.03-2.562-1.124-2.562-2.466Zm13.198-11.579c-.713-1.28-.227-2.777 1.07-3.495a2.73 2.73 0 0 1 3.632 1.03c.714 1.28.227 2.777-1.07 3.495a2.508 2.508 0 0 1-1.2.344c-1.005.03-1.978-.562-2.432-1.374Zm-13.263 6.274c-.81-1.436-.26-3.121 1.232-3.902 1.492-.78 3.243-.25 4.054 1.186.81 1.436.26 3.121-1.232 3.901-.422.25-.94.406-1.362.406-1.07-.031-2.173-.655-2.692-1.591Zm12.777 6.46c-.876-1.53-.292-3.34 1.297-4.182 1.589-.843 3.47-.281 4.345 1.248.876 1.53.292 3.34-1.297 4.182-.421.281-1.005.406-1.46.406-1.134 0-2.301-.687-2.885-1.654Z"/>
</svg>