<svg width="185" height="40" xmlns="http://www.w3.org/2000/svg">
    <g fill="none" fill-rule="evenodd">
        <path d="M12.096 38.415c0-.687.583-1.249 1.297-1.249.713 0 1.297.562 1.297 1.249 0 .686-.584 1.248-1.297 1.248-.714 0-1.297-.53-1.297-1.248Zm0-37.14c0-.686.583-1.248 1.297-1.248.713 0 1.297.562 1.297 1.248 0 .687-.584 1.249-1.297 1.249-.714 0-1.297-.531-1.297-1.249ZM5.61 7.517c0-.686.584-1.248 1.297-1.248.714 0 1.297.562 1.297 1.248 0 .687-.583 1.249-1.297 1.249-.713 0-1.297-.531-1.297-1.249Zm.551 6.242c0-.406.325-.718.746-.718.422 0 .746.312.746.718 0 .406-.324.718-.746.718-.421 0-.746-.312-.746-.718ZM0 13.76c0-.218.195-.406.422-.406.227 0 .421.188.421.406a.421.421 0 0 1-.421.406c-.227 0-.422-.156-.422-.406Zm0 5.836c0-.218.195-.405.422-.405.227 0 .421.187.421.405a.421.421 0 0 1-.421.406.421.421 0 0 1-.422-.406Zm0 6.648c0-.219.195-.406.422-.406.227 0 .421.187.421.406a.421.421 0 0 1-.421.406c-.227 0-.422-.156-.422-.406Zm6.161-6.648c0-.405.325-.718.746-.718.422 0 .746.313.746.718 0 .406-.324.718-.746.718-.421 0-.746-.312-.746-.718Zm0 6.648c0-.406.325-.718.746-.718.422 0 .746.312.746.718 0 .406-.324.718-.746.718-.421 0-.746-.312-.746-.718Zm-.55 6.242c0-.687.583-1.248 1.296-1.248.714 0 1.297.561 1.297 1.248 0 .687-.583 1.248-1.297 1.248-.713 0-1.297-.53-1.297-1.248Zm5.61-25.28c0-1.248 1.004-2.091 2.172-2.091 1.297 0 2.173.967 2.173 2.091s-1.006 2.091-2.173 2.091c-1.297 0-2.173-.967-2.173-2.091Zm7.133.312c0-1.248 1.006-2.09 2.173-2.09 1.297 0 2.173.967 2.173 2.09 0 1.124-1.006 2.091-2.173 2.091-1.297 0-2.173-.967-2.173-2.09Zm0 24.968c0-1.248 1.006-2.091 2.173-2.091 1.297 0 2.173.967 2.173 2.09 0 1.124-1.006 2.092-2.173 2.092-1.297 0-2.173-.968-2.173-2.091Zm0-12.796c0-1.248 1.006-2.091 2.173-2.091 1.297 0 2.173.967 2.173 2.09 0 1.124-1.006 2.092-2.173 2.092-1.297 0-2.173-.968-2.173-2.091ZM11.22 32.173c0-1.249 1.005-2.091 2.173-2.091 1.297 0 2.173.967 2.173 2.09 0 1.124-1.006 2.092-2.173 2.092-1.297 0-2.173-.968-2.173-2.091Zm-.389-19.038c0-1.498 1.2-2.466 2.562-2.466 1.556 0 2.562 1.155 2.562 2.466 0 1.31-1.2 2.465-2.562 2.465-1.557.032-2.562-1.123-2.562-2.465Zm0 13.108c0-1.498 1.2-2.466 2.562-2.466 1.556 0 2.562 1.155 2.562 2.466 0 1.31-1.2 2.466-2.562 2.466-1.557.03-2.562-1.124-2.562-2.466Zm13.198-11.579c-.713-1.28-.227-2.778 1.07-3.495a2.73 2.73 0 0 1 3.632 1.03c.714 1.28.227 2.777-1.07 3.495a2.508 2.508 0 0 1-1.2.343c-1.005.032-1.978-.561-2.432-1.373Zm-13.263 6.273c-.81-1.435-.26-3.12 1.232-3.9 1.492-.781 3.243-.25 4.054 1.185.81 1.436.26 3.121-1.232 3.901-.422.25-.94.406-1.362.406-1.07-.031-2.173-.655-2.692-1.592Zm12.777 6.46c-.876-1.529-.292-3.339 1.297-4.181 1.589-.843 3.47-.281 4.345 1.248.876 1.53.292 3.34-1.297 4.182-.421.281-1.005.406-1.46.406-1.134 0-2.301-.687-2.885-1.654Z" fill="#FF5111" fill-rule="nonzero"/>
        <path d="M48.35 29.134h-8.04V10.266h7.744c2.105 0 3.687.47 4.749 1.408 1.061.94 1.592 2.18 1.592 3.72 0 .993-.248 1.852-.742 2.579-.495.726-1.174 1.266-2.037 1.62.953.32 1.708.856 2.266 1.609s.836 1.634.836 2.644c0 1.665-.548 2.963-1.645 3.893-1.098.93-2.672 1.395-4.722 1.395Zm-.026-8.079H43.52v5.156h4.776c2.086 0 3.13-.86 3.13-2.578 0-.815-.27-1.448-.81-1.9-.54-.452-1.304-.678-2.293-.678Zm-.243-7.866h-4.56v4.917h4.56c2.015 0 3.022-.815 3.022-2.445 0-.78-.252-1.387-.756-1.82-.503-.435-1.259-.652-2.266-.652Zm8.301 4.97v-2.817h5.262v13.792h-3.211V18.16h-2.05Zm3.67-5.13c-.594 0-1.08-.18-1.457-.544-.378-.363-.567-.828-.567-1.395 0-.585.19-1.063.567-1.435.378-.372.863-.558 1.457-.558.575 0 1.052.186 1.43.558.378.372.566.85.566 1.435 0 .567-.188 1.032-.566 1.395-.378.363-.855.545-1.43.545ZM71.59 26.318v2.738c-.396.106-.953.16-1.673.16-2.734 0-4.101-1.356-4.101-4.067v-7.282h-2.132v-2.524h2.132v-3.588h3.21v3.588h2.618v2.524h-2.617v6.963c0 1.08.521 1.621 1.565 1.621l.998-.133Zm1.178-4.066c0-2.037.657-3.751 1.97-5.142 1.313-1.39 2.986-2.086 5.019-2.086 1.924 0 3.458.536 4.6 1.608 1.142 1.072 1.821 2.307 2.037 3.707h-3.292a3.274 3.274 0 0 0-1.2-1.834c-.603-.46-1.327-.69-2.172-.69-1.134 0-2.042.411-2.726 1.235-.683.824-1.025 1.891-1.025 3.202s.342 2.374 1.025 3.19c.684.814 1.592 1.222 2.726 1.222.845 0 1.569-.23 2.172-.691a3.274 3.274 0 0 0 1.2-1.834h3.292c-.216 1.4-.895 2.636-2.037 3.707-1.142 1.072-2.676 1.608-4.6 1.608-2.033 0-3.706-.695-5.02-2.086-1.312-1.39-1.969-3.096-1.969-5.116Zm24.599.984c-3.13 0-4.965.141-5.505.425-.557.283-.836.797-.836 1.541 0 1.187.8 1.78 2.401 1.78 2.627 0 3.94-1.01 3.94-3.029v-.717Zm-4.506 6.218c-1.655 0-2.887-.398-3.697-1.196-.81-.797-1.214-1.851-1.214-3.162 0-1.683.755-2.861 2.266-3.535.36-.16.706-.279 1.04-.358.332-.08 1.011-.16 2.036-.24 1.026-.08 2.384-.12 4.075-.12v-.69c0-1.683-.999-2.525-2.995-2.525-1.745 0-2.735.682-2.968 2.047h-3.13c.144-1.347.715-2.459 1.713-3.336.998-.877 2.487-1.315 4.466-1.315 1.996 0 3.503.452 4.519 1.355 1.016.904 1.524 2.17 1.524 3.8v8.956H97.53v-1.461c-1.008 1.187-2.564 1.78-4.668 1.78Zm16.018 0c-1.925 0-3.373-.443-4.344-1.329-.972-.885-1.502-2.02-1.592-3.401h3.103c.036.638.315 1.151.836 1.541.522.39 1.25.585 2.186.585.827 0 1.466-.142 1.915-.425.45-.284.675-.665.675-1.143 0-.532-.274-.926-.823-1.183-.549-.257-1.219-.447-2.01-.571a25.117 25.117 0 0 1-2.375-.492 4.017 4.017 0 0 1-2.01-1.209c-.548-.602-.823-1.426-.823-2.471 0-1.205.509-2.228 1.525-3.07 1.016-.841 2.36-1.262 4.034-1.262.953 0 1.794.146 2.522.438.729.293 1.296.678 1.7 1.156.405.479.71.966.918 1.462.207.496.328 1.001.364 1.515h-3.076a2.149 2.149 0 0 0-.715-1.409c-.423-.39-1.02-.584-1.794-.584s-1.367.146-1.781.438c-.414.292-.62.696-.62 1.21 0 .478.274.84.822 1.089.549.248 1.219.434 2.01.558.792.124 1.583.297 2.375.518a4.111 4.111 0 0 1 2.01 1.263c.549.62.823 1.443.823 2.471 0 1.24-.508 2.268-1.525 3.083-1.016.815-2.46 1.222-4.33 1.222Zm7.114-11.294v-2.817h5.261v13.792h-3.21V18.16h-2.051Zm3.67-5.13c-.594 0-1.08-.18-1.457-.544-.378-.363-.567-.828-.567-1.395 0-.585.189-1.063.567-1.435.377-.372.863-.558 1.457-.558.575 0 1.052.186 1.43.558.377.372.566.85.566 1.435 0 .567-.189 1.032-.566 1.395-.378.363-.855.545-1.43.545Zm8.22 2.313v1.833c.324-.602.859-1.111 1.605-1.528.747-.416 1.65-.624 2.712-.624 1.655 0 2.937.496 3.845 1.488.908.992 1.363 2.312 1.363 3.96v8.663h-3.211V20.87c0-.974-.23-1.74-.688-2.298-.459-.558-1.156-.837-2.091-.837-1.026 0-1.83.3-2.415.903-.585.602-.877 1.435-.877 2.498v8h-3.211V15.341h2.968Zm19.418 14.111c-2.159 0-3.908-.7-5.248-2.1-1.34-1.399-2.01-3.1-2.01-5.102 0-2.002.67-3.707 2.01-5.115 1.34-1.409 3.09-2.113 5.248-2.113 2.176 0 3.935.704 5.275 2.113 1.34 1.408 2.01 3.113 2.01 5.115 0 2.002-.67 3.703-2.01 5.103-1.34 1.4-3.099 2.1-5.275 2.1Zm-4.047-7.202c0 1.311.382 2.374 1.146 3.19.765.814 1.732 1.222 2.9 1.222 1.188 0 2.164-.408 2.928-1.223.765-.815 1.147-1.878 1.147-3.189 0-1.328-.382-2.4-1.147-3.215-.764-.815-1.74-1.223-2.927-1.223-1.17 0-2.136.408-2.9 1.223-.765.815-1.147 1.887-1.147 3.215Zm15.451 7.096c-.647 0-1.183-.2-1.605-.598-.423-.399-.634-.917-.634-1.555 0-.62.211-1.138.634-1.554.422-.417.958-.625 1.605-.625.63 0 1.156.208 1.579.625.422.416.634.934.634 1.554 0 .638-.207 1.156-.62 1.555-.415.399-.945.598-1.593.598Zm3.627-11.188v-2.817h5.262v13.792h-3.211V18.16h-2.05Zm3.67-5.13c-.594 0-1.08-.18-1.457-.544-.378-.363-.567-.828-.567-1.395 0-.585.189-1.063.567-1.435.377-.372.863-.558 1.457-.558.575 0 1.052.186 1.43.558.377.372.566.85.566 1.435 0 .567-.189 1.032-.566 1.395-.378.363-.855.545-1.43.545Zm11.613 16.424c-2.158 0-3.908-.7-5.248-2.1-1.34-1.399-2.01-3.1-2.01-5.102 0-2.002.67-3.707 2.01-5.115 1.34-1.409 3.09-2.113 5.248-2.113 2.177 0 3.935.704 5.275 2.113 1.34 1.408 2.01 3.113 2.01 5.115 0 2.002-.67 3.703-2.01 5.103-1.34 1.4-3.098 2.1-5.275 2.1Zm-4.047-7.202c0 1.311.382 2.374 1.147 3.19.764.814 1.731 1.222 2.9 1.222 1.188 0 2.163-.408 2.928-1.223.764-.815 1.147-1.878 1.147-3.189 0-1.328-.383-2.4-1.147-3.215-.765-.815-1.74-1.223-2.928-1.223-1.169 0-2.136.408-2.9 1.223-.765.815-1.147 1.887-1.147 3.215Z" fill="#FFF"/>
    </g>
</svg>
